<svg xmlns="http://www.w3.org/2000/svg" xmlns:xlink="http://www.w3.org/1999/xlink" width="770" zoomAndPan="magnify" viewBox="0 0 577.5 225" height="300" preserveAspectRatio="xMidYMid meet" version="1.0"><defs><g/></defs><g fill="#ffffff" fill-opacity="1"><g transform="translate(1.75046, 163.169081)"><g><path d="M 68.578125 15.09375 C 66.285156 15.09375 64.125 15.664062 62.09375 16.8125 L 56.546875 11.46875 L 63.421875 1.53125 C 55.015625 0.632812 47.148438 -1.785156 39.828125 -5.734375 C 32.503906 -9.679688 26.132812 -14.773438 20.71875 -21.015625 C 15.3125 -27.253906 11.078125 -34.351562 8.015625 -42.3125 C 4.960938 -50.269531 3.4375 -58.707031 3.4375 -67.625 C 3.4375 -77.175781 5.1875 -86.15625 8.6875 -94.5625 C 12.195312 -102.96875 16.941406 -110.320312 22.921875 -116.625 C 28.910156 -122.9375 35.976562 -127.9375 44.125 -131.625 C 52.28125 -135.320312 60.941406 -137.171875 70.109375 -137.171875 C 78.648438 -137.171875 86.707031 -135.484375 94.28125 -132.109375 C 101.863281 -128.734375 108.644531 -124.304688 114.625 -118.828125 L 102.78125 -103.734375 C 98.582031 -108.191406 93.679688 -111.851562 88.078125 -114.71875 C 82.472656 -117.582031 76.484375 -119.015625 70.109375 -119.015625 C 63.617188 -119.015625 57.539062 -117.644531 51.875 -114.90625 C 46.207031 -112.175781 41.269531 -108.453125 37.0625 -103.734375 C 32.863281 -99.023438 29.519531 -93.582031 27.03125 -87.40625 C 24.550781 -81.226562 23.3125 -74.632812 23.3125 -67.625 C 23.3125 -60.625 24.550781 -54.035156 27.03125 -47.859375 C 29.519531 -41.679688 32.863281 -36.265625 37.0625 -31.609375 C 41.269531 -26.960938 46.207031 -23.300781 51.875 -20.625 C 57.539062 -17.957031 63.617188 -16.625 70.109375 -16.625 C 77.492188 -16.625 84.335938 -18.40625 90.640625 -21.96875 C 96.953125 -25.53125 102.273438 -30.242188 106.609375 -36.109375 L 120.546875 -22.734375 C 114.691406 -15.859375 107.71875 -10.191406 99.625 -5.734375 C 91.539062 -1.273438 82.785156 1.207031 73.359375 1.71875 L 68.78125 8.984375 C 74.757812 7.835938 79.210938 8.410156 82.140625 10.703125 C 85.078125 12.992188 86.546875 16.050781 86.546875 19.875 C 86.546875 24.707031 84.757812 28.238281 81.1875 30.46875 C 77.625 32.695312 73.421875 33.8125 68.578125 33.8125 C 67.179688 33.8125 65.59375 33.75 63.8125 33.625 C 62.03125 33.5 60.5 33.304688 59.21875 33.046875 C 59.476562 32.023438 59.734375 30.941406 59.984375 29.796875 C 60.242188 28.648438 60.5 27.570312 60.75 26.5625 C 61.382812 26.6875 62.082031 26.78125 62.84375 26.84375 C 63.613281 26.90625 64.507812 26.9375 65.53125 26.9375 C 68.207031 26.9375 70.53125 26.457031 72.5 25.5 C 74.476562 24.550781 75.46875 22.992188 75.46875 20.828125 C 75.46875 19.046875 74.859375 17.644531 73.640625 16.625 C 72.429688 15.601562 70.742188 15.09375 68.578125 15.09375 Z M 68.578125 15.09375 "/></g></g></g><g fill="#ffffff" fill-opacity="1"><g transform="translate(128.408573, 163.169081)"><g><path d="M 54.0625 2.296875 C 47.4375 2.296875 41.226562 1.054688 35.4375 -1.421875 C 29.644531 -3.910156 24.582031 -7.320312 20.25 -11.65625 C 15.914062 -15.988281 12.503906 -21.082031 10.015625 -26.9375 C 7.535156 -32.789062 6.296875 -39.03125 6.296875 -45.65625 C 6.296875 -52.28125 7.472656 -58.519531 9.828125 -64.375 C 12.191406 -70.238281 15.378906 -75.332031 19.390625 -79.65625 C 23.398438 -83.988281 28.078125 -87.394531 33.421875 -89.875 C 38.773438 -92.363281 44.507812 -93.609375 50.625 -93.609375 C 56.863281 -93.609375 62.625 -92.523438 67.90625 -90.359375 C 73.195312 -88.203125 77.785156 -84.828125 81.671875 -80.234375 C 85.554688 -75.648438 88.582031 -69.820312 90.75 -62.75 C 92.914062 -55.6875 94 -47.25 94 -37.4375 L 25.984375 -37.4375 C 26.867188 -34.132812 28.265625 -31.046875 30.171875 -28.171875 C 32.085938 -25.304688 34.351562 -22.820312 36.96875 -20.71875 C 39.582031 -18.625 42.507812 -17.003906 45.75 -15.859375 C 49 -14.710938 52.410156 -14.140625 55.984375 -14.140625 C 60.816406 -14.140625 65.300781 -15.03125 69.4375 -16.8125 C 73.582031 -18.59375 77.117188 -20.945312 80.046875 -23.875 L 91.515625 -12.421875 C 87.054688 -7.960938 81.609375 -4.394531 75.171875 -1.71875 C 68.742188 0.957031 61.707031 2.296875 54.0625 2.296875 Z M 50.625 -76.796875 C 47.695312 -76.796875 44.925781 -76.222656 42.3125 -75.078125 C 39.707031 -73.929688 37.289062 -72.335938 35.0625 -70.296875 C 32.832031 -68.265625 30.921875 -65.847656 29.328125 -63.046875 C 27.734375 -60.242188 26.554688 -57.1875 25.796875 -53.875 L 74.125 -53.875 C 73.875 -56.925781 73.175781 -59.851562 72.03125 -62.65625 C 70.882812 -65.457031 69.289062 -67.910156 67.25 -70.015625 C 65.207031 -72.117188 62.816406 -73.773438 60.078125 -74.984375 C 57.347656 -76.191406 54.195312 -76.796875 50.625 -76.796875 Z M 50.625 -76.796875 "/></g></g></g><g fill="#ffffff" fill-opacity="1"><g transform="translate(229.658696, 163.169081)"><g><path d="M 30.1875 -139.46875 L 30.1875 0 L 11.65625 0 L 11.65625 -139.46875 Z M 30.1875 -139.46875 "/></g></g></g><g fill="#ffffff" fill-opacity="1"><g transform="translate(270.158708, 163.169081)"><g><path d="M 54.0625 2.296875 C 47.4375 2.296875 41.226562 1.054688 35.4375 -1.421875 C 29.644531 -3.910156 24.582031 -7.320312 20.25 -11.65625 C 15.914062 -15.988281 12.503906 -21.082031 10.015625 -26.9375 C 7.535156 -32.789062 6.296875 -39.03125 6.296875 -45.65625 C 6.296875 -52.28125 7.472656 -58.519531 9.828125 -64.375 C 12.191406 -70.238281 15.378906 -75.332031 19.390625 -79.65625 C 23.398438 -83.988281 28.078125 -87.394531 33.421875 -89.875 C 38.773438 -92.363281 44.507812 -93.609375 50.625 -93.609375 C 56.863281 -93.609375 62.625 -92.523438 67.90625 -90.359375 C 73.195312 -88.203125 77.785156 -84.828125 81.671875 -80.234375 C 85.554688 -75.648438 88.582031 -69.820312 90.75 -62.75 C 92.914062 -55.6875 94 -47.25 94 -37.4375 L 25.984375 -37.4375 C 26.867188 -34.132812 28.265625 -31.046875 30.171875 -28.171875 C 32.085938 -25.304688 34.351562 -22.820312 36.96875 -20.71875 C 39.582031 -18.625 42.507812 -17.003906 45.75 -15.859375 C 49 -14.710938 52.410156 -14.140625 55.984375 -14.140625 C 60.816406 -14.140625 65.300781 -15.03125 69.4375 -16.8125 C 73.582031 -18.59375 77.117188 -20.945312 80.046875 -23.875 L 91.515625 -12.421875 C 87.054688 -7.960938 81.609375 -4.394531 75.171875 -1.71875 C 68.742188 0.957031 61.707031 2.296875 54.0625 2.296875 Z M 50.625 -76.796875 C 47.695312 -76.796875 44.925781 -76.222656 42.3125 -75.078125 C 39.707031 -73.929688 37.289062 -72.335938 35.0625 -70.296875 C 32.832031 -68.265625 30.921875 -65.847656 29.328125 -63.046875 C 27.734375 -60.242188 26.554688 -57.1875 25.796875 -53.875 L 74.125 -53.875 C 73.875 -56.925781 73.175781 -59.851562 72.03125 -62.65625 C 70.882812 -65.457031 69.289062 -67.910156 67.25 -70.015625 C 65.207031 -72.117188 62.816406 -73.773438 60.078125 -74.984375 C 57.347656 -76.191406 54.195312 -76.796875 50.625 -76.796875 Z M 50.625 -76.796875 "/></g></g></g><g fill="#ffffff" fill-opacity="1"><g transform="translate(371.408831, 163.169081)"><g><path d="M 25.984375 0 L 11.265625 0 L 11.265625 -139.46875 L 29.796875 -139.46875 L 29.796875 -81.578125 C 33.367188 -85.398438 37.507812 -88.359375 42.21875 -90.453125 C 46.9375 -92.554688 52.414062 -93.609375 58.65625 -93.609375 C 65.019531 -93.609375 70.90625 -92.363281 76.3125 -89.875 C 81.726562 -87.394531 86.410156 -83.988281 90.359375 -79.65625 C 94.304688 -75.332031 97.394531 -70.238281 99.625 -64.375 C 101.851562 -58.519531 102.96875 -52.28125 102.96875 -45.65625 C 102.96875 -39.03125 101.851562 -32.789062 99.625 -26.9375 C 97.394531 -21.082031 94.304688 -15.988281 90.359375 -11.65625 C 86.410156 -7.320312 81.726562 -3.910156 76.3125 -1.421875 C 70.90625 1.054688 65.019531 2.296875 58.65625 2.296875 C 52.664062 2.296875 47.28125 1.242188 42.5 -0.859375 C 37.726562 -2.960938 33.492188 -5.859375 29.796875 -9.546875 Z M 57.125 -76.796875 C 53.425781 -76.796875 49.921875 -76.253906 46.609375 -75.171875 C 43.296875 -74.085938 40.398438 -72.304688 37.921875 -69.828125 C 35.441406 -67.347656 33.5 -64.128906 32.09375 -60.171875 C 30.695312 -56.222656 30 -51.382812 30 -45.65625 C 30 -40.3125 30.695312 -35.664062 32.09375 -31.71875 C 33.5 -27.769531 35.441406 -24.488281 37.921875 -21.875 C 40.398438 -19.257812 43.296875 -17.316406 46.609375 -16.046875 C 49.921875 -14.773438 53.425781 -14.140625 57.125 -14.140625 C 60.8125 -14.140625 64.3125 -14.96875 67.625 -16.625 C 70.9375 -18.28125 73.800781 -20.539062 76.21875 -23.40625 C 78.644531 -26.269531 80.554688 -29.613281 81.953125 -33.4375 C 83.359375 -37.257812 84.0625 -41.332031 84.0625 -45.65625 C 84.0625 -49.988281 83.359375 -54.066406 81.953125 -57.890625 C 80.554688 -61.710938 78.644531 -65.023438 76.21875 -67.828125 C 73.800781 -70.628906 70.9375 -72.820312 67.625 -74.40625 C 64.3125 -76 60.8125 -76.796875 57.125 -76.796875 Z M 57.125 -76.796875 "/></g></g></g><g fill="#ffffff" fill-opacity="1"><g transform="translate(482.78391, 163.169081)"><g><path d="M 30 0 L 11.46875 0 L 11.46875 -91.515625 L 29.796875 -91.515625 Z M 20.640625 -111.375 C 17.328125 -111.375 14.519531 -112.550781 12.21875 -114.90625 C 9.925781 -117.269531 8.78125 -120.109375 8.78125 -123.421875 C 8.78125 -126.734375 9.925781 -129.535156 12.21875 -131.828125 C 14.519531 -134.117188 17.328125 -135.265625 20.640625 -135.265625 C 23.941406 -135.265625 26.738281 -134.117188 29.03125 -131.828125 C 31.332031 -129.535156 32.484375 -126.734375 32.484375 -123.421875 C 32.484375 -120.109375 31.332031 -117.269531 29.03125 -114.90625 C 26.738281 -112.550781 23.941406 -111.375 20.640625 -111.375 Z M 20.640625 -111.375 "/></g></g></g><g fill="#e11414" fill-opacity="1"><g transform="translate(522.899995, 163.169081)"><g><path d="M 8.21875 -9.9375 C 8.21875 -13.25 9.363281 -16.082031 11.65625 -18.4375 C 13.945312 -20.789062 16.75 -21.96875 20.0625 -21.96875 C 23.375 -21.96875 26.175781 -20.789062 28.46875 -18.4375 C 30.757812 -16.082031 31.90625 -13.25 31.90625 -9.9375 C 31.90625 -6.625 30.757812 -3.820312 28.46875 -1.53125 C 26.175781 0.757812 23.375 1.90625 20.0625 1.90625 C 16.75 1.90625 13.945312 0.757812 11.65625 -1.53125 C 9.363281 -3.820312 8.21875 -6.625 8.21875 -9.9375 Z M 8.21875 -9.9375 "/></g></g></g></svg>